<?xml version="1.0" encoding="utf-8"?>
<!-- Generator: Adobe Illustrator 23.0.4, SVG Export Plug-In . SVG Version: 6.00 Build 0)  -->
<svg version="1.1" id="Layer_1" xmlns="http://www.w3.org/2000/svg" xmlns:xlink="http://www.w3.org/1999/xlink" x="0px" y="0px"
	 viewBox="0 0 102 72" style="enable-background:new 0 0 102 72;" xml:space="preserve">
<style type="text/css">
	.st0{fill:#FFFFFF;}
	.st1{fill:#006491;}
	.st2{fill:#DD052B;}
</style>
<g>
	<g>
		<circle class="st0" cx="37.6" cy="51" r="9.8"/>
		<path d="M37.6,62.4c-6.3,0-11.4-5.1-11.4-11.4s5.1-11.4,11.4-11.4S49,44.7,49,51S43.9,62.4,37.6,62.4z M37.6,42.8
			c-4.5,0-8.2,3.7-8.2,8.2s3.7,8.2,8.2,8.2s8.2-3.7,8.2-8.2C45.8,46.4,42.1,42.8,37.6,42.8z"/>
	</g>
	<g>
		<circle class="st0" cx="85.4" cy="51" r="9.8"/>
		<path d="M85.4,62.4C79.1,62.4,74,57.3,74,51s5.1-11.4,11.4-11.4S96.8,44.7,96.8,51S91.7,62.4,85.4,62.4z M85.4,42.8
			c-4.5,0-8.2,3.7-8.2,8.2s3.7,8.2,8.2,8.2s8.2-3.7,8.2-8.2C93.6,46.4,89.9,42.8,85.4,42.8z"/>
	</g>
	<path d="M86.3,51.5c-0.7,0-1.3-0.5-1.5-1.2l-8.5-30.8l-6.5-0.7c-0.9-0.1-1.5-0.9-1.4-1.8s0.9-1.5,1.8-1.4l7.6,0.8
		c0.7,0.1,1.2,0.5,1.4,1.2L88,49.5c0.2,0.9-0.3,1.7-1.1,2C86.6,51.5,86.4,51.5,86.3,51.5z"/>
	<path d="M37.6,53.1c-0.9,0-1.6-0.7-1.6-1.5c0-0.9,0.6-1.6,1.5-1.7l13.1-0.6l11.3-2.5V42c0-0.9,0.7-1.6,1.6-1.6s1.6,0.7,1.6,1.6v6.1
		c0,0.7-0.5,1.4-1.2,1.6l-12.7,2.8c-0.1,0-0.2,0-0.3,0L37.6,53.1L37.6,53.1z"/>
	<g>
		<path class="st1" d="M46.7,25.3v9.9H20.3c-0.8-1.8-1.3-3.9-1.3-6c0-6.9,5-12.8,11.7-14.5l5.6,2.5v2.3l6.6,2.3
			C46.7,25.3,46.7,25.3,46.7,25.3z"/>
		<path d="M46.7,36.8H20.3c-0.6,0-1.2-0.4-1.5-0.9c-1-2.1-1.5-4.4-1.5-6.7c0-7.5,5.3-14.1,12.9-16.1c0.3-0.1,0.7-0.1,1,0.1l5.6,2.5
			c0.6,0.3,1,0.8,1,1.5v1.2l5.6,1.9c0.2,0.1,0.4,0.2,0.6,0.3l3.8,3.5c0.3,0.3,0.5,0.7,0.5,1.2v9.9C48.3,36.1,47.6,36.8,46.7,36.8z
			 M21.4,33.6h23.7V26l-3-2.8L35.8,21c-0.6-0.2-1.1-0.8-1.1-1.5v-1.3l-4.1-1.8c-5.9,1.7-10,6.9-10,12.8
			C20.6,30.7,20.8,32.2,21.4,33.6z"/>
	</g>
	<g>
		<polygon class="st2" points="45.1,36.6 51.3,45.6 72.7,41.1 82.3,35.2 80,27 70.8,27 64.7,31.1 		"/>
		<path d="M51.3,47.2c-0.5,0-1-0.3-1.3-0.7l-6.2-9c-0.3-0.4-0.4-1-0.2-1.5s0.6-0.9,1.1-1L64,29.7l5.9-4c0.3-0.2,0.6-0.3,0.9-0.3H80
			c0.7,0,1.4,0.5,1.5,1.2l2.2,8.2c0.2,0.7-0.1,1.4-0.7,1.8l-9.6,5.9c-0.2,0.1-0.3,0.2-0.5,0.2l-21.4,4.5
			C51.5,47.2,51.4,47.2,51.3,47.2z M47.6,37.6l4.3,6.3L72,39.7l8.3-5.1l-1.6-5.9h-7.5l-5.7,3.8c-0.1,0.1-0.3,0.2-0.5,0.2L47.6,37.6z
			"/>
	</g>
	<path d="M25.4,19.9H12.6c-0.9,0-1.6-0.7-1.6-1.6s0.7-1.6,1.6-1.6h12.8c0.9,0,1.6,0.7,1.6,1.6C27,19.2,26.3,19.9,25.4,19.9z"/>
	<path d="M24.5,29.5h-19c-0.9,0-1.6-0.7-1.6-1.6s0.7-1.6,1.6-1.6h19c0.9,0,1.6,0.7,1.6,1.6S25.4,29.5,24.5,29.5z"/>
</g>
</svg>
