<?xml version="1.0" encoding="utf-8"?>
<!-- Generator: Adobe Illustrator 23.0.4, SVG Export Plug-In . SVG Version: 6.00 Build 0)  -->
<svg version="1.1" id="Layer_1" xmlns="http://www.w3.org/2000/svg" xmlns:xlink="http://www.w3.org/1999/xlink" x="0px" y="0px"
	 viewBox="0 0 102 72" style="enable-background:new 0 0 102 72;" xml:space="preserve">
<style type="text/css">
	.st0{fill:#FFFFFF;}
	.st1{fill:#006491;}
	.st2{fill:#DD052B;}
</style>
<g>
	<g>
		<g>
			<path class="st0" d="M65.2,63.9H52.3c-4.4,0-8-3.6-8-8V16.1c0-4.4,3.6-8,8-8h12.9c4.4,0,8,3.6,8,8v39.8
				C73.2,60.3,69.6,63.9,65.2,63.9z"/>
			<path d="M69.8,65.4H47.7c-2.7,0-4.9-2.2-4.9-4.9v-49c0-2.7,2.2-4.9,4.9-4.9h22.1c2.7,0,4.9,2.2,4.9,4.9v49
				C74.7,63.2,72.5,65.4,69.8,65.4z M47.7,9.6c-1.1,0-1.9,0.9-1.9,1.9v49c0,1.1,0.9,1.9,1.9,1.9h22.1c1.1,0,1.9-0.9,1.9-1.9v-49
				c0-1.1-0.9-1.9-1.9-1.9H47.7z"/>
		</g>
		<g>
			<rect x="44.3" y="17.8" class="st1" width="28.9" height="35.4"/>
			<path d="M73.2,54.7H44.3c-0.8,0-1.5-0.7-1.5-1.5V17.8c0-0.8,0.7-1.5,1.5-1.5h28.9c0.8,0,1.5,0.7,1.5,1.5v35.4
				C74.7,54,74,54.7,73.2,54.7z M45.8,51.7h25.9V19.3H45.8V51.7z"/>
		</g>
		<path d="M60.7,14.4h-3.8c-0.8,0-1.5-0.7-1.5-1.5s0.7-1.5,1.5-1.5h3.8c0.8,0,1.5,0.7,1.5,1.5S61.5,14.4,60.7,14.4z"/>
		<path class="st2" d="M37.5,14.6H24.1c-0.8,0-1.5-0.7-1.5-1.5s0.7-1.5,1.5-1.5h13.4c0.8,0,1.5,0.7,1.5,1.5S38.3,14.6,37.5,14.6z"/>
		<path class="st2" d="M37.5,29.8H27.1c-0.8,0-1.5-0.7-1.5-1.5c0-0.8,0.7-1.5,1.5-1.5h10.4c0.8,0,1.5,0.7,1.5,1.5
			C39,29.2,38.3,29.8,37.5,29.8z"/>
		<path class="st2" d="M37.5,44h-7.9c-0.8,0-1.5-0.7-1.5-1.5c0-0.8,0.7-1.5,1.5-1.5h7.9c0.8,0,1.5,0.7,1.5,1.5
			C39,43.3,38.3,44,37.5,44z"/>
		<path class="st2" d="M37.5,55.9h-2.3c-0.8,0-1.5-0.7-1.5-1.5c0-0.8,0.7-1.5,1.5-1.5h2.3c0.8,0,1.5,0.7,1.5,1.5
			C39,55.2,38.3,55.9,37.5,55.9z"/>
	</g>
	<circle cx="62.3" cy="28" r="2.7"/>
	<circle cx="71.8" cy="41.3" r="4.2"/>
	<ellipse cx="54.3" cy="41.3" rx="2.8" ry="4.2"/>
	<g>
		<g>
			<g>
				<polygon class="st0" points="49,33.9 50.3,26.3 47.3,26.3 48,22.3 58.2,22.3 57.5,26.3 54.6,26.3 53.2,33.9 				"/>
				<path d="M57.2,23.2l-0.4,2.3h-3l-1.3,7.6H50l1.3-7.6h-3l0.4-2.3H57.2 M59.2,21.5h-2h-8.5h-1.4l-0.2,1.4l-0.4,2.3l-0.3,2h2h1
					l-1,5.6l-0.3,2h2h2.6h1.4l0.2-1.4l1.1-6.2h1.6h1.4l0.2-1.4l0.4-2.3L59.2,21.5L59.2,21.5z"/>
			</g>
			<g>
				<path class="st0" d="M62,34.1c-1.6,0-3-0.5-4.1-1.6c-1.1-1.1-1.6-2.4-1.6-4c0-1.8,0.6-3.3,1.9-4.5c1.3-1.2,2.8-1.8,4.6-1.8
					c1.6,0,3,0.5,4.1,1.6c1.1,1.1,1.6,2.4,1.6,4c0,1.8-0.6,3.3-1.9,4.5C65.3,33.5,63.7,34.1,62,34.1z M62.5,26.2
					c-0.6,0-1.1,0.2-1.4,0.6c-0.4,0.4-0.6,0.9-0.6,1.5c0,0.5,0.1,1,0.4,1.3c0.3,0.3,0.7,0.4,1.2,0.4c0.6,0,1.1-0.2,1.4-0.6
					c0.4-0.4,0.6-0.9,0.6-1.5c0-0.5-0.1-1-0.4-1.3C63.4,26.3,63,26.2,62.5,26.2z"/>
				<path d="M62.7,23c1.4,0,2.6,0.5,3.5,1.4c0.9,0.9,1.4,2,1.4,3.4c0,1.5-0.6,2.8-1.7,3.9c-1.1,1.1-2.4,1.6-4,1.6
					c-1.4,0-2.6-0.5-3.5-1.4c-0.9-0.9-1.4-2-1.4-3.4c0-1.5,0.6-2.8,1.7-3.9C59.8,23.5,61.1,23,62.7,23 M62.1,30.9
					c0.8,0,1.5-0.3,2-0.8c0.5-0.6,0.8-1.3,0.8-2.1c0-0.8-0.2-1.4-0.7-1.8c-0.5-0.5-1.1-0.7-1.8-0.7c-0.8,0-1.5,0.3-2,0.8
					c-0.5,0.6-0.8,1.3-0.8,2.1c0,0.8,0.2,1.4,0.7,1.8C60.8,30.6,61.4,30.9,62.1,30.9 M62.7,21.3c-2,0-3.7,0.7-5.2,2
					c-1.4,1.4-2.2,3.1-2.2,5.1c0,1.9,0.6,3.4,1.9,4.6c1.2,1.2,2.8,1.8,4.7,1.8c2,0,3.7-0.7,5.2-2c1.4-1.4,2.2-3.1,2.2-5.1
					c0-1.9-0.6-3.4-1.9-4.6C66.2,21.9,64.6,21.3,62.7,21.3L62.7,21.3z M62.1,29.2c-0.3,0-0.5-0.1-0.6-0.2c-0.1-0.1-0.2-0.2-0.2-0.7
					c0-0.5,0.2-0.8,0.3-1c0.2-0.2,0.5-0.3,0.8-0.3c0.3,0,0.5,0.1,0.6,0.2c0.1,0.1,0.2,0.2,0.2,0.7c0,0.5-0.2,0.8-0.3,1
					C62.8,29.1,62.5,29.2,62.1,29.2L62.1,29.2z"/>
			</g>
		</g>
		<g>
			<g>
				<path class="st0" d="M55.3,49.7c-2.3,0-4.2-0.7-5.7-2.2c-1.5-1.4-2.3-3.3-2.3-5.5c0-2.4,0.9-4.5,2.6-6.1
					c1.7-1.6,3.9-2.5,6.4-2.5c3.1,0,5.3,1.3,6.8,3.9l0.4,0.6l-2.4,1.7H64l-1.1,6l-0.1,0.1c-0.8,1.2-1.8,2.1-3.2,2.8
					C58.3,49.3,56.9,49.7,55.3,49.7z M56.1,38.4c-1,0-1.8,0.3-2.4,0.9c-0.6,0.6-0.9,1.4-0.9,2.5c0,0.9,0.2,1.6,0.8,2.1
					c0.5,0.5,1.2,0.8,2.1,0.8c0.5,0,1-0.1,1.4-0.2h-2.5l0.9-4.8h3.2C57.9,38.8,57.1,38.4,56.1,38.4z"/>
				<path d="M56.3,34.2c2.7,0,4.8,1.1,6,3.4l-2.8,2.1c-0.9-1.4-2-2.1-3.5-2.1c-1.2,0-2.2,0.4-3,1.2c-0.8,0.8-1.2,1.8-1.2,3.1
					c0,1.2,0.3,2.1,1,2.7c0.7,0.7,1.6,1,2.7,1c1.2,0,2.2-0.4,3-1.1l0.1-0.8h-3.3l0.6-3.2h7l-0.9,4.8c-0.7,1.1-1.6,1.9-2.9,2.6
					c-1.2,0.6-2.5,1-4,1c-2.1,0-3.8-0.6-5.1-1.9c-1.3-1.3-2-2.9-2-4.9c0-2.2,0.8-4,2.4-5.5C52.1,35,54.1,34.2,56.3,34.2 M56.3,32.5
					c-2.7,0-5,0.9-6.9,2.7c-1.9,1.8-2.9,4.1-2.9,6.7c0,2.4,0.8,4.5,2.5,6.1c1.6,1.6,3.8,2.4,6.3,2.4c1.7,0,3.3-0.4,4.8-1.2
					c1.5-0.8,2.6-1.8,3.5-3.1l0.2-0.3l0.1-0.3l0.9-4.8l0.3-2h-1.3l0.9-0.7l-0.7-1.3C62.3,34,59.7,32.5,56.3,32.5L56.3,32.5z
					 M53.9,43c-0.1-0.2-0.2-0.6-0.2-1.2c0-0.8,0.2-1.4,0.7-1.9c0,0,0.1-0.1,0.1-0.1l-0.1,0.3L53.9,43L53.9,43z"/>
			</g>
			<g>
				<path class="st0" d="M71.3,49.7c-2.3,0-4.1-0.7-5.6-2.2c-1.5-1.4-2.2-3.3-2.2-5.5c0-2.4,0.9-4.5,2.6-6.1
					c1.7-1.6,3.9-2.5,6.3-2.5c2.3,0,4.1,0.7,5.6,2.2c1.5,1.4,2.2,3.3,2.2,5.5c0,2.4-0.9,4.5-2.6,6.1C75.8,48.8,73.7,49.7,71.3,49.7z
					 M72.1,38.4c-0.9,0-1.7,0.3-2.3,0.9c-0.6,0.6-0.9,1.4-0.9,2.4c0,0.9,0.2,1.5,0.7,2c0.5,0.5,1.1,0.7,1.9,0.7
					c0.9,0,1.7-0.3,2.3-0.9c0.6-0.6,0.9-1.4,0.9-2.4c0-0.9-0.2-1.5-0.7-2C73.5,38.7,72.9,38.4,72.1,38.4z"/>
				<path d="M72.3,34.2c2,0,3.7,0.6,5,1.9c1.3,1.3,2,2.9,2,4.9c0,2.2-0.8,4-2.4,5.5c-1.6,1.5-3.5,2.3-5.7,2.3c-2,0-3.7-0.6-5-1.9
					c-1.3-1.3-2-2.9-2-4.9c0-2.2,0.8-4,2.4-5.5C68.2,35,70.1,34.2,72.3,34.2 M71.5,45.5c1.2,0,2.1-0.4,2.9-1.2
					c0.8-0.8,1.2-1.8,1.2-3c0-1.1-0.3-2-1-2.6c-0.7-0.7-1.5-1-2.5-1c-1.2,0-2.1,0.4-2.9,1.2c-0.8,0.8-1.2,1.8-1.2,3
					c0,1.1,0.3,2,1,2.6C69.6,45.1,70.5,45.5,71.5,45.5 M72.3,32.5c-2.7,0-5,0.9-6.9,2.7c-1.9,1.8-2.9,4.1-2.9,6.7
					c0,2.4,0.8,4.5,2.5,6.1c1.6,1.6,3.7,2.4,6.2,2.4c2.7,0,5-0.9,6.9-2.7c1.9-1.8,2.9-4.1,2.9-6.7c0-2.4-0.8-4.5-2.5-6.1
					C76.9,33.4,74.8,32.5,72.3,32.5L72.3,32.5z M71.5,43.8c-0.8,0-1.1-0.3-1.3-0.5c-0.2-0.2-0.5-0.6-0.5-1.5c0-0.8,0.2-1.4,0.7-1.9
					c0.5-0.5,1-0.7,1.7-0.7c0.8,0,1.1,0.3,1.3,0.5c0.2,0.2,0.5,0.6,0.5,1.5c0,0.8-0.2,1.4-0.7,1.9C72.8,43.6,72.2,43.8,71.5,43.8
					L71.5,43.8z"/>
			</g>
		</g>
	</g>
</g>
</svg>
